<mxfile host="app.diagrams.net" agent="Mozilla/5.0 (Windows NT 10.0; Win64; x64) AppleWebKit/537.36 (KHTML, like Gecko) Chrome/129.0.0.0 Safari/537.36" version="24.7.17">
  <diagram name="Page-1" id="pDbwjCxbtxyNWmoh99q6">
    <mxGraphModel dx="5185" dy="2765" grid="1" gridSize="10" guides="1" tooltips="1" connect="1" arrows="1" fold="1" page="1" pageScale="1" pageWidth="2339" pageHeight="3300" math="0" shadow="0">
      <root>
        <mxCell id="0" />
        <mxCell id="1" parent="0" />
        <mxCell id="JVvF_bcykr9_8PElaBvw-1" value="Start Program" style="rounded=1;whiteSpace=wrap;html=1;arcSize=63.2;" vertex="1" parent="1">
          <mxGeometry x="792" y="80" width="120" height="60" as="geometry" />
        </mxCell>
        <mxCell id="JVvF_bcykr9_8PElaBvw-2" value="Prompt: PC" style="shape=parallelogram;perimeter=parallelogramPerimeter;whiteSpace=wrap;html=1;fixedSize=1;arcSize=63.2;" vertex="1" parent="1">
          <mxGeometry x="652" y="190" width="120" height="60" as="geometry" />
        </mxCell>
        <mxCell id="JVvF_bcykr9_8PElaBvw-3" value="" style="endArrow=classic;html=1;rounded=0;exitX=0.5;exitY=1;exitDx=0;exitDy=0;entryX=0.5;entryY=0;entryDx=0;entryDy=0;arcSize=63.2;" edge="1" parent="1" source="JVvF_bcykr9_8PElaBvw-1" target="JVvF_bcykr9_8PElaBvw-2">
          <mxGeometry width="50" height="50" relative="1" as="geometry">
            <mxPoint x="562" y="380" as="sourcePoint" />
            <mxPoint x="612" y="330" as="targetPoint" />
          </mxGeometry>
        </mxCell>
        <mxCell id="JVvF_bcykr9_8PElaBvw-4" value="Prompt: NC" style="shape=parallelogram;perimeter=parallelogramPerimeter;whiteSpace=wrap;html=1;fixedSize=1;arcSize=63.2;" vertex="1" parent="1">
          <mxGeometry x="792" y="190" width="120" height="60" as="geometry" />
        </mxCell>
        <mxCell id="JVvF_bcykr9_8PElaBvw-5" value="Prompt: PA" style="shape=parallelogram;perimeter=parallelogramPerimeter;whiteSpace=wrap;html=1;fixedSize=1;arcSize=63.2;" vertex="1" parent="1">
          <mxGeometry x="932" y="190" width="120" height="60" as="geometry" />
        </mxCell>
        <mxCell id="JVvF_bcykr9_8PElaBvw-6" value="" style="endArrow=classic;html=1;rounded=0;exitX=0.5;exitY=1;exitDx=0;exitDy=0;arcSize=63.2;" edge="1" parent="1" source="JVvF_bcykr9_8PElaBvw-1" target="JVvF_bcykr9_8PElaBvw-4">
          <mxGeometry width="50" height="50" relative="1" as="geometry">
            <mxPoint x="772" y="350" as="sourcePoint" />
            <mxPoint x="822" y="300" as="targetPoint" />
          </mxGeometry>
        </mxCell>
        <mxCell id="JVvF_bcykr9_8PElaBvw-7" value="" style="endArrow=classic;html=1;rounded=0;exitX=0.5;exitY=1;exitDx=0;exitDy=0;entryX=0.5;entryY=0;entryDx=0;entryDy=0;arcSize=63.2;" edge="1" parent="1" source="JVvF_bcykr9_8PElaBvw-1" target="JVvF_bcykr9_8PElaBvw-5">
          <mxGeometry width="50" height="50" relative="1" as="geometry">
            <mxPoint x="942" y="350" as="sourcePoint" />
            <mxPoint x="992" y="300" as="targetPoint" />
          </mxGeometry>
        </mxCell>
        <mxCell id="JVvF_bcykr9_8PElaBvw-8" value="Store Current Avenue Status" style="rounded=0;whiteSpace=wrap;html=1;arcSize=63.2;" vertex="1" parent="1">
          <mxGeometry x="792" y="290" width="120" height="60" as="geometry" />
        </mxCell>
        <mxCell id="JVvF_bcykr9_8PElaBvw-9" value="" style="endArrow=classic;html=1;rounded=0;exitX=0.5;exitY=1;exitDx=0;exitDy=0;entryX=0.5;entryY=0;entryDx=0;entryDy=0;arcSize=63.2;" edge="1" parent="1" source="JVvF_bcykr9_8PElaBvw-2" target="JVvF_bcykr9_8PElaBvw-8">
          <mxGeometry width="50" height="50" relative="1" as="geometry">
            <mxPoint x="692" y="390" as="sourcePoint" />
            <mxPoint x="742" y="340" as="targetPoint" />
          </mxGeometry>
        </mxCell>
        <mxCell id="JVvF_bcykr9_8PElaBvw-10" value="" style="endArrow=classic;html=1;rounded=0;exitX=0.5;exitY=1;exitDx=0;exitDy=0;entryX=0.5;entryY=0;entryDx=0;entryDy=0;arcSize=63.2;" edge="1" parent="1" source="JVvF_bcykr9_8PElaBvw-4" target="JVvF_bcykr9_8PElaBvw-8">
          <mxGeometry width="50" height="50" relative="1" as="geometry">
            <mxPoint x="712" y="370" as="sourcePoint" />
            <mxPoint x="762" y="320" as="targetPoint" />
          </mxGeometry>
        </mxCell>
        <mxCell id="JVvF_bcykr9_8PElaBvw-11" value="" style="endArrow=classic;html=1;rounded=0;exitX=0.5;exitY=1;exitDx=0;exitDy=0;entryX=0.5;entryY=0;entryDx=0;entryDy=0;arcSize=63.2;" edge="1" parent="1" source="JVvF_bcykr9_8PElaBvw-5" target="JVvF_bcykr9_8PElaBvw-8">
          <mxGeometry width="50" height="50" relative="1" as="geometry">
            <mxPoint x="862" y="450" as="sourcePoint" />
            <mxPoint x="912" y="400" as="targetPoint" />
          </mxGeometry>
        </mxCell>
        <mxCell id="JVvF_bcykr9_8PElaBvw-12" value="Prompt: Color Group" style="shape=parallelogram;perimeter=parallelogramPerimeter;whiteSpace=wrap;html=1;fixedSize=1;arcSize=63.2;" vertex="1" parent="1">
          <mxGeometry x="777" y="400" width="150" height="70" as="geometry" />
        </mxCell>
        <mxCell id="JVvF_bcykr9_8PElaBvw-13" value="" style="endArrow=classic;html=1;rounded=0;exitX=0.5;exitY=1;exitDx=0;exitDy=0;entryX=0.5;entryY=0;entryDx=0;entryDy=0;arcSize=63.2;" edge="1" parent="1" source="JVvF_bcykr9_8PElaBvw-8" target="JVvF_bcykr9_8PElaBvw-12">
          <mxGeometry width="50" height="50" relative="1" as="geometry">
            <mxPoint x="642" y="480" as="sourcePoint" />
            <mxPoint x="692" y="430" as="targetPoint" />
          </mxGeometry>
        </mxCell>
        <mxCell id="JVvF_bcykr9_8PElaBvw-18" value="" style="endArrow=classic;html=1;rounded=0;exitX=0;exitY=0.5;exitDx=0;exitDy=0;entryX=0.5;entryY=0;entryDx=0;entryDy=0;arcSize=63.2;" edge="1" parent="1" source="JVvF_bcykr9_8PElaBvw-12">
          <mxGeometry width="50" height="50" relative="1" as="geometry">
            <mxPoint x="652" y="440" as="sourcePoint" />
            <mxPoint x="692" y="480" as="targetPoint" />
            <Array as="points">
              <mxPoint x="692" y="435" />
            </Array>
          </mxGeometry>
        </mxCell>
        <mxCell id="JVvF_bcykr9_8PElaBvw-19" value="No" style="text;html=1;align=center;verticalAlign=middle;resizable=0;points=[];autosize=1;strokeColor=none;fillColor=none;arcSize=63.2;" vertex="1" parent="1">
          <mxGeometry x="722" y="410" width="40" height="30" as="geometry" />
        </mxCell>
        <mxCell id="JVvF_bcykr9_8PElaBvw-20" value="" style="endArrow=classic;html=1;rounded=0;exitX=0.5;exitY=1;exitDx=0;exitDy=0;arcSize=63.2;" edge="1" parent="1">
          <mxGeometry width="50" height="50" relative="1" as="geometry">
            <mxPoint x="692" y="540" as="sourcePoint" />
            <mxPoint x="692" y="590" as="targetPoint" />
          </mxGeometry>
        </mxCell>
        <mxCell id="JVvF_bcykr9_8PElaBvw-22" value="Output: No Properties" style="shape=parallelogram;perimeter=parallelogramPerimeter;whiteSpace=wrap;html=1;fixedSize=1;arcSize=63.2;" vertex="1" parent="1">
          <mxGeometry x="622" y="480" width="150" height="70" as="geometry" />
        </mxCell>
        <mxCell id="JVvF_bcykr9_8PElaBvw-23" value="End" style="rounded=1;whiteSpace=wrap;html=1;arcSize=63.2;" vertex="1" parent="1">
          <mxGeometry x="632" y="590" width="120" height="60" as="geometry" />
        </mxCell>
        <mxCell id="JVvF_bcykr9_8PElaBvw-24" value="If Pacific_Avenue_Status &amp;lt; 4 or &lt;br/&gt;        North_Carolina_Avenue_Status &amp;lt; 4 or &lt;br/&gt;        Pennsylvania_Avenue_Status &amp;lt; 4:" style="rhombus;whiteSpace=wrap;html=1;arcSize=63.2;" vertex="1" parent="1">
          <mxGeometry x="927" y="440" width="250" height="150" as="geometry" />
        </mxCell>
        <mxCell id="JVvF_bcykr9_8PElaBvw-25" value="" style="endArrow=classic;html=1;rounded=0;exitX=1;exitY=0.5;exitDx=0;exitDy=0;entryX=0;entryY=0;entryDx=0;entryDy=0;arcSize=63.2;" edge="1" parent="1" source="JVvF_bcykr9_8PElaBvw-12" target="JVvF_bcykr9_8PElaBvw-24">
          <mxGeometry width="50" height="50" relative="1" as="geometry">
            <mxPoint x="982" y="420" as="sourcePoint" />
            <mxPoint x="1012" y="430" as="targetPoint" />
            <Array as="points">
              <mxPoint x="990" y="435" />
            </Array>
          </mxGeometry>
        </mxCell>
        <mxCell id="JVvF_bcykr9_8PElaBvw-26" value="Yes" style="text;html=1;align=center;verticalAlign=middle;resizable=0;points=[];autosize=1;strokeColor=none;fillColor=none;arcSize=63.2;" vertex="1" parent="1">
          <mxGeometry x="932" y="410" width="40" height="30" as="geometry" />
        </mxCell>
        <mxCell id="JVvF_bcykr9_8PElaBvw-27" value="Output: &quot;Each property must have 4 houses before &lt;br/&gt;          you can build a hotel.&quot;" style="shape=parallelogram;perimeter=parallelogramPerimeter;whiteSpace=wrap;html=1;fixedSize=1;arcSize=63.2;" vertex="1" parent="1">
          <mxGeometry x="802" y="580" width="200" height="70" as="geometry" />
        </mxCell>
        <mxCell id="JVvF_bcykr9_8PElaBvw-28" value="" style="endArrow=classic;html=1;rounded=0;exitX=0;exitY=1;exitDx=0;exitDy=0;entryX=0.25;entryY=0;entryDx=0;entryDy=0;arcSize=63.2;" edge="1" parent="1" source="JVvF_bcykr9_8PElaBvw-24" target="JVvF_bcykr9_8PElaBvw-27">
          <mxGeometry width="50" height="50" relative="1" as="geometry">
            <mxPoint x="852" y="570" as="sourcePoint" />
            <mxPoint x="896" y="580" as="targetPoint" />
            <Array as="points">
              <mxPoint x="852" y="550" />
            </Array>
          </mxGeometry>
        </mxCell>
        <mxCell id="JVvF_bcykr9_8PElaBvw-29" value="Yes" style="text;html=1;align=center;verticalAlign=middle;resizable=0;points=[];autosize=1;strokeColor=none;fillColor=none;arcSize=63.2;" vertex="1" parent="1">
          <mxGeometry x="892" y="530" width="40" height="30" as="geometry" />
        </mxCell>
        <mxCell id="JVvF_bcykr9_8PElaBvw-30" value="End" style="rounded=1;whiteSpace=wrap;html=1;arcSize=63.2;" vertex="1" parent="1">
          <mxGeometry x="842" y="700" width="120" height="60" as="geometry" />
        </mxCell>
        <mxCell id="JVvF_bcykr9_8PElaBvw-31" value="" style="endArrow=classic;html=1;rounded=0;exitX=0.5;exitY=1;exitDx=0;exitDy=0;entryX=0.5;entryY=0;entryDx=0;entryDy=0;arcSize=63.2;" edge="1" parent="1" source="JVvF_bcykr9_8PElaBvw-27" target="JVvF_bcykr9_8PElaBvw-30">
          <mxGeometry width="50" height="50" relative="1" as="geometry">
            <mxPoint x="722" y="770" as="sourcePoint" />
            <mxPoint x="772" y="720" as="targetPoint" />
          </mxGeometry>
        </mxCell>
        <mxCell id="JVvF_bcykr9_8PElaBvw-32" value="Prompt: Cash" style="shape=parallelogram;perimeter=parallelogramPerimeter;whiteSpace=wrap;html=1;fixedSize=1;arcSize=63.2;" vertex="1" parent="1">
          <mxGeometry x="1357" y="630" width="120" height="60" as="geometry" />
        </mxCell>
        <mxCell id="JVvF_bcykr9_8PElaBvw-35" value="" style="endArrow=classic;html=1;rounded=0;exitX=0.5;exitY=1;exitDx=0;exitDy=0;arcSize=63.2;" edge="1" parent="1" source="JVvF_bcykr9_8PElaBvw-32" target="JVvF_bcykr9_8PElaBvw-36">
          <mxGeometry width="50" height="50" relative="1" as="geometry">
            <mxPoint x="1407" y="880" as="sourcePoint" />
            <mxPoint x="1457" y="830" as="targetPoint" />
          </mxGeometry>
        </mxCell>
        <mxCell id="JVvF_bcykr9_8PElaBvw-36" value="Store Current Cash available" style="rounded=0;whiteSpace=wrap;html=1;arcSize=63.2;" vertex="1" parent="1">
          <mxGeometry x="1357" y="740" width="120" height="60" as="geometry" />
        </mxCell>
        <mxCell id="JVvF_bcykr9_8PElaBvw-38" value="If Cash_Amount &amp;lt; 200:" style="rhombus;whiteSpace=wrap;html=1;arcSize=63.2;" vertex="1" parent="1">
          <mxGeometry x="1312" y="830" width="210" height="100" as="geometry" />
        </mxCell>
        <mxCell id="JVvF_bcykr9_8PElaBvw-39" value="" style="endArrow=classic;html=1;rounded=0;exitX=0;exitY=0.5;exitDx=0;exitDy=0;entryX=1;entryY=0.5;entryDx=0;entryDy=0;arcSize=63.2;" edge="1" parent="1" source="JVvF_bcykr9_8PElaBvw-38" target="JVvF_bcykr9_8PElaBvw-40">
          <mxGeometry width="50" height="50" relative="1" as="geometry">
            <mxPoint x="907" y="930" as="sourcePoint" />
            <mxPoint x="1247" y="810" as="targetPoint" />
            <Array as="points" />
          </mxGeometry>
        </mxCell>
        <mxCell id="JVvF_bcykr9_8PElaBvw-40" value="Output: Cash" style="shape=parallelogram;perimeter=parallelogramPerimeter;whiteSpace=wrap;html=1;fixedSize=1;arcSize=63.2;" vertex="1" parent="1">
          <mxGeometry x="1147" y="890" width="120" height="60" as="geometry" />
        </mxCell>
        <mxCell id="JVvF_bcykr9_8PElaBvw-41" value="Yes" style="text;html=1;align=center;verticalAlign=middle;resizable=0;points=[];autosize=1;strokeColor=none;fillColor=none;arcSize=63.2;" vertex="1" parent="1">
          <mxGeometry x="1267" y="860" width="40" height="30" as="geometry" />
        </mxCell>
        <mxCell id="JVvF_bcykr9_8PElaBvw-43" value="End" style="rounded=1;whiteSpace=wrap;html=1;arcSize=63.2;" vertex="1" parent="1">
          <mxGeometry x="1147" y="990" width="120" height="60" as="geometry" />
        </mxCell>
        <mxCell id="JVvF_bcykr9_8PElaBvw-44" value="" style="endArrow=classic;html=1;rounded=0;entryX=0.5;entryY=0;entryDx=0;entryDy=0;exitX=0.5;exitY=1;exitDx=0;exitDy=0;arcSize=63.2;" edge="1" parent="1" source="JVvF_bcykr9_8PElaBvw-40">
          <mxGeometry width="50" height="50" relative="1" as="geometry">
            <mxPoint x="1117" y="970" as="sourcePoint" />
            <mxPoint x="1197.000000000001" y="990" as="targetPoint" />
          </mxGeometry>
        </mxCell>
        <mxCell id="JVvF_bcykr9_8PElaBvw-45" value="Prompt: Hotels&amp;nbsp;" style="shape=parallelogram;perimeter=parallelogramPerimeter;whiteSpace=wrap;html=1;fixedSize=1;arcSize=63.2;" vertex="1" parent="1">
          <mxGeometry x="1524.5" y="1080" width="120" height="60" as="geometry" />
        </mxCell>
        <mxCell id="JVvF_bcykr9_8PElaBvw-49" value="IF all property house_count = 4" style="rhombus;whiteSpace=wrap;html=1;arcSize=63.2;" vertex="1" parent="1">
          <mxGeometry x="1122" y="560" width="200" height="180" as="geometry" />
        </mxCell>
        <mxCell id="JVvF_bcykr9_8PElaBvw-53" value="" style="endArrow=classic;html=1;rounded=0;exitX=1;exitY=1;exitDx=0;exitDy=0;entryX=0;entryY=0;entryDx=0;entryDy=0;arcSize=63.2;" edge="1" parent="1" source="JVvF_bcykr9_8PElaBvw-24" target="JVvF_bcykr9_8PElaBvw-49">
          <mxGeometry width="50" height="50" relative="1" as="geometry">
            <mxPoint x="1252" y="510" as="sourcePoint" />
            <mxPoint x="1302" y="460" as="targetPoint" />
          </mxGeometry>
        </mxCell>
        <mxCell id="JVvF_bcykr9_8PElaBvw-54" value="No" style="text;html=1;align=center;verticalAlign=middle;resizable=0;points=[];autosize=1;strokeColor=none;fillColor=none;arcSize=63.2;" vertex="1" parent="1">
          <mxGeometry x="1132" y="548" width="40" height="30" as="geometry" />
        </mxCell>
        <mxCell id="JVvF_bcykr9_8PElaBvw-55" value="" style="endArrow=classic;html=1;rounded=0;exitX=1;exitY=0;exitDx=0;exitDy=0;entryX=0.5;entryY=0;entryDx=0;entryDy=0;arcSize=63.2;" edge="1" parent="1" source="JVvF_bcykr9_8PElaBvw-49" target="JVvF_bcykr9_8PElaBvw-32">
          <mxGeometry width="50" height="50" relative="1" as="geometry">
            <mxPoint x="1417.000000000001" y="590" as="sourcePoint" />
            <mxPoint x="1317" y="580" as="targetPoint" />
            <Array as="points">
              <mxPoint x="1412" y="600" />
            </Array>
          </mxGeometry>
        </mxCell>
        <mxCell id="JVvF_bcykr9_8PElaBvw-56" value="" style="endArrow=classic;html=1;rounded=0;exitX=0.5;exitY=1;exitDx=0;exitDy=0;entryX=0.5;entryY=0;entryDx=0;entryDy=0;arcSize=63.2;" edge="1" parent="1" source="JVvF_bcykr9_8PElaBvw-36" target="JVvF_bcykr9_8PElaBvw-38">
          <mxGeometry width="50" height="50" relative="1" as="geometry">
            <mxPoint x="1167" y="790" as="sourcePoint" />
            <mxPoint x="1217" y="740" as="targetPoint" />
          </mxGeometry>
        </mxCell>
        <mxCell id="JVvF_bcykr9_8PElaBvw-57" value="IF Cash_Amount &amp;gt;= 200" style="rhombus;whiteSpace=wrap;html=1;arcSize=63.2;" vertex="1" parent="1">
          <mxGeometry x="1477" y="910" width="215" height="110" as="geometry" />
        </mxCell>
        <mxCell id="JVvF_bcykr9_8PElaBvw-58" value="" style="endArrow=classic;html=1;rounded=0;exitX=1;exitY=1;exitDx=0;exitDy=0;entryX=0;entryY=0;entryDx=0;entryDy=0;arcSize=63.2;" edge="1" parent="1" source="JVvF_bcykr9_8PElaBvw-38" target="JVvF_bcykr9_8PElaBvw-57">
          <mxGeometry width="50" height="50" relative="1" as="geometry">
            <mxPoint x="1427" y="1050" as="sourcePoint" />
            <mxPoint x="1477" y="1000" as="targetPoint" />
          </mxGeometry>
        </mxCell>
        <mxCell id="JVvF_bcykr9_8PElaBvw-59" value="" style="endArrow=classic;html=1;rounded=0;exitX=0.5;exitY=1;exitDx=0;exitDy=0;entryX=0.5;entryY=0;entryDx=0;entryDy=0;arcSize=63.2;" edge="1" parent="1" source="JVvF_bcykr9_8PElaBvw-57" target="JVvF_bcykr9_8PElaBvw-45">
          <mxGeometry width="50" height="50" relative="1" as="geometry">
            <mxPoint x="1307" y="1100" as="sourcePoint" />
            <mxPoint x="1357" y="1050" as="targetPoint" />
          </mxGeometry>
        </mxCell>
        <mxCell id="JVvF_bcykr9_8PElaBvw-60" value="No" style="text;html=1;align=center;verticalAlign=middle;resizable=0;points=[];autosize=1;strokeColor=none;fillColor=none;arcSize=63.2;" vertex="1" parent="1">
          <mxGeometry x="1497" y="900" width="40" height="30" as="geometry" />
        </mxCell>
        <mxCell id="JVvF_bcykr9_8PElaBvw-61" value="Store Available hotels" style="rounded=0;whiteSpace=wrap;html=1;arcSize=63.2;" vertex="1" parent="1">
          <mxGeometry x="1524.5" y="1180" width="120" height="60" as="geometry" />
        </mxCell>
        <mxCell id="JVvF_bcykr9_8PElaBvw-62" value="" style="endArrow=classic;html=1;rounded=0;exitX=0.5;exitY=1;exitDx=0;exitDy=0;entryX=0.5;entryY=0;entryDx=0;entryDy=0;arcSize=63.2;" edge="1" parent="1" source="JVvF_bcykr9_8PElaBvw-45" target="JVvF_bcykr9_8PElaBvw-61">
          <mxGeometry width="50" height="50" relative="1" as="geometry">
            <mxPoint x="1407" y="1230" as="sourcePoint" />
            <mxPoint x="1457" y="1180" as="targetPoint" />
          </mxGeometry>
        </mxCell>
        <mxCell id="JVvF_bcykr9_8PElaBvw-63" value="IF available hotels ==0" style="rhombus;whiteSpace=wrap;html=1;arcSize=63.2;" vertex="1" parent="1">
          <mxGeometry x="1357" y="1290" width="200" height="130" as="geometry" />
        </mxCell>
        <mxCell id="JVvF_bcykr9_8PElaBvw-65" value="" style="endArrow=classic;html=1;rounded=0;exitX=0.5;exitY=1;exitDx=0;exitDy=0;entryX=1;entryY=0;entryDx=0;entryDy=0;arcSize=63.2;" edge="1" parent="1" source="JVvF_bcykr9_8PElaBvw-61" target="JVvF_bcykr9_8PElaBvw-63">
          <mxGeometry width="50" height="50" relative="1" as="geometry">
            <mxPoint x="1307" y="1280" as="sourcePoint" />
            <mxPoint x="1357" y="1230" as="targetPoint" />
          </mxGeometry>
        </mxCell>
        <mxCell id="JVvF_bcykr9_8PElaBvw-66" value="IF available hotels &amp;gt;0" style="rhombus;whiteSpace=wrap;html=1;arcSize=63.2;" vertex="1" parent="1">
          <mxGeometry x="1617" y="1290" width="210" height="130" as="geometry" />
        </mxCell>
        <mxCell id="JVvF_bcykr9_8PElaBvw-67" value="" style="endArrow=classic;html=1;rounded=0;exitX=0.5;exitY=1;exitDx=0;exitDy=0;entryX=0;entryY=0;entryDx=0;entryDy=0;arcSize=63.2;" edge="1" parent="1" source="JVvF_bcykr9_8PElaBvw-61" target="JVvF_bcykr9_8PElaBvw-66">
          <mxGeometry width="50" height="50" relative="1" as="geometry">
            <mxPoint x="1617" y="1320" as="sourcePoint" />
            <mxPoint x="1667" y="1270" as="targetPoint" />
          </mxGeometry>
        </mxCell>
        <mxCell id="JVvF_bcykr9_8PElaBvw-68" value="Output: No Hotels" style="shape=parallelogram;perimeter=parallelogramPerimeter;whiteSpace=wrap;html=1;fixedSize=1;arcSize=63.2;" vertex="1" parent="1">
          <mxGeometry x="1257" y="1450" width="150" height="90" as="geometry" />
        </mxCell>
        <mxCell id="JVvF_bcykr9_8PElaBvw-69" value="" style="endArrow=classic;html=1;rounded=0;exitX=0;exitY=1;exitDx=0;exitDy=0;entryX=0.5;entryY=0;entryDx=0;entryDy=0;arcSize=63.2;" edge="1" parent="1" source="JVvF_bcykr9_8PElaBvw-63" target="JVvF_bcykr9_8PElaBvw-68">
          <mxGeometry width="50" height="50" relative="1" as="geometry">
            <mxPoint x="1237" y="1440" as="sourcePoint" />
            <mxPoint x="1287" y="1390" as="targetPoint" />
          </mxGeometry>
        </mxCell>
        <mxCell id="JVvF_bcykr9_8PElaBvw-70" value="Yes" style="text;html=1;align=center;verticalAlign=middle;resizable=0;points=[];autosize=1;strokeColor=none;fillColor=none;arcSize=63.2;" vertex="1" parent="1">
          <mxGeometry x="1337" y="1390" width="40" height="30" as="geometry" />
        </mxCell>
        <mxCell id="JVvF_bcykr9_8PElaBvw-71" value="End" style="rounded=1;whiteSpace=wrap;html=1;arcSize=63.2;" vertex="1" parent="1">
          <mxGeometry x="1272" y="1580" width="120" height="60" as="geometry" />
        </mxCell>
        <mxCell id="JVvF_bcykr9_8PElaBvw-72" value="" style="endArrow=classic;html=1;rounded=0;exitX=0.5;exitY=1;exitDx=0;exitDy=0;arcSize=63.2;" edge="1" parent="1" source="JVvF_bcykr9_8PElaBvw-68" target="JVvF_bcykr9_8PElaBvw-71">
          <mxGeometry width="50" height="50" relative="1" as="geometry">
            <mxPoint x="1087" y="1450" as="sourcePoint" />
            <mxPoint x="1137" y="1400" as="targetPoint" />
          </mxGeometry>
        </mxCell>
        <mxCell id="JVvF_bcykr9_8PElaBvw-73" value="" style="endArrow=classic;html=1;rounded=0;exitX=0.5;exitY=1;exitDx=0;exitDy=0;arcSize=63.2;" edge="1" parent="1" source="JVvF_bcykr9_8PElaBvw-66" target="JVvF_bcykr9_8PElaBvw-75">
          <mxGeometry width="50" height="50" relative="1" as="geometry">
            <mxPoint x="1707" y="1490" as="sourcePoint" />
            <mxPoint x="1722" y="1490" as="targetPoint" />
          </mxGeometry>
        </mxCell>
        <mxCell id="JVvF_bcykr9_8PElaBvw-74" value="Yes" style="text;html=1;align=center;verticalAlign=middle;resizable=0;points=[];autosize=1;strokeColor=none;fillColor=none;arcSize=63.2;" vertex="1" parent="1">
          <mxGeometry x="1652" y="1430" width="40" height="30" as="geometry" />
        </mxCell>
        <mxCell id="JVvF_bcykr9_8PElaBvw-75" value="IF Pennsylvania avenue has a status ==5" style="rhombus;whiteSpace=wrap;html=1;arcSize=63.2;" vertex="1" parent="1">
          <mxGeometry x="1522" y="1450" width="195" height="180" as="geometry" />
        </mxCell>
        <mxCell id="JVvF_bcykr9_8PElaBvw-76" value="Output: One Hotel" style="shape=parallelogram;perimeter=parallelogramPerimeter;whiteSpace=wrap;html=1;fixedSize=1;arcSize=63.2;" vertex="1" parent="1">
          <mxGeometry x="1557" y="1680" width="120" height="60" as="geometry" />
        </mxCell>
        <mxCell id="JVvF_bcykr9_8PElaBvw-77" value="" style="endArrow=classic;html=1;rounded=0;exitX=0.5;exitY=1;exitDx=0;exitDy=0;entryX=0.5;entryY=0;entryDx=0;entryDy=0;arcSize=63.2;" edge="1" parent="1" source="JVvF_bcykr9_8PElaBvw-75" target="JVvF_bcykr9_8PElaBvw-76">
          <mxGeometry width="50" height="50" relative="1" as="geometry">
            <mxPoint x="1407" y="1720" as="sourcePoint" />
            <mxPoint x="1457" y="1670" as="targetPoint" />
          </mxGeometry>
        </mxCell>
        <mxCell id="JVvF_bcykr9_8PElaBvw-78" value="End" style="rounded=1;whiteSpace=wrap;html=1;arcSize=63.2;" vertex="1" parent="1">
          <mxGeometry x="1560" y="1780" width="120" height="60" as="geometry" />
        </mxCell>
        <mxCell id="JVvF_bcykr9_8PElaBvw-79" value="" style="endArrow=classic;html=1;rounded=0;exitX=0.5;exitY=1;exitDx=0;exitDy=0;arcSize=63.2;" edge="1" parent="1" source="JVvF_bcykr9_8PElaBvw-76" target="JVvF_bcykr9_8PElaBvw-78">
          <mxGeometry width="50" height="50" relative="1" as="geometry">
            <mxPoint x="1487" y="1800" as="sourcePoint" />
            <mxPoint x="1537" y="1750" as="targetPoint" />
          </mxGeometry>
        </mxCell>
        <mxCell id="JVvF_bcykr9_8PElaBvw-80" value="If Pennsylvania status &amp;lt; 5" style="rhombus;whiteSpace=wrap;html=1;arcSize=63.2;" vertex="1" parent="1">
          <mxGeometry x="1777" y="1468" width="200" height="150" as="geometry" />
        </mxCell>
        <mxCell id="JVvF_bcykr9_8PElaBvw-81" value="" style="endArrow=classic;html=1;rounded=0;exitX=0.5;exitY=1;exitDx=0;exitDy=0;entryX=0;entryY=0;entryDx=0;entryDy=0;arcSize=63.2;" edge="1" parent="1" source="JVvF_bcykr9_8PElaBvw-66" target="JVvF_bcykr9_8PElaBvw-80">
          <mxGeometry width="50" height="50" relative="1" as="geometry">
            <mxPoint x="1807" y="1310" as="sourcePoint" />
            <mxPoint x="1857" y="1260" as="targetPoint" />
          </mxGeometry>
        </mxCell>
        <mxCell id="JVvF_bcykr9_8PElaBvw-82" value="" style="endArrow=classic;html=1;rounded=0;exitX=0.5;exitY=1;exitDx=0;exitDy=0;entryX=0.5;entryY=0;entryDx=0;entryDy=0;arcSize=63.2;" edge="1" parent="1" source="JVvF_bcykr9_8PElaBvw-80" target="JVvF_bcykr9_8PElaBvw-83">
          <mxGeometry width="50" height="50" relative="1" as="geometry">
            <mxPoint x="1877" y="1690" as="sourcePoint" />
            <mxPoint x="1927" y="1640" as="targetPoint" />
          </mxGeometry>
        </mxCell>
        <mxCell id="JVvF_bcykr9_8PElaBvw-83" value="IF North Carolina Avenue has a hotel and Pennsylvania has 4 houses" style="rhombus;whiteSpace=wrap;html=1;arcSize=63.2;" vertex="1" parent="1">
          <mxGeometry x="1747" y="1660" width="260" height="200" as="geometry" />
        </mxCell>
        <mxCell id="JVvF_bcykr9_8PElaBvw-84" value="Yes" style="text;html=1;align=center;verticalAlign=middle;resizable=0;points=[];autosize=1;strokeColor=none;fillColor=none;arcSize=63.2;" vertex="1" parent="1">
          <mxGeometry x="1887" y="1618" width="40" height="30" as="geometry" />
        </mxCell>
        <mxCell id="JVvF_bcykr9_8PElaBvw-85" value="Yes" style="text;html=1;align=center;verticalAlign=middle;resizable=0;points=[];autosize=1;strokeColor=none;fillColor=none;arcSize=63.2;" vertex="1" parent="1">
          <mxGeometry x="1777" y="1430" width="40" height="30" as="geometry" />
        </mxCell>
        <mxCell id="JVvF_bcykr9_8PElaBvw-86" value="Output: Swap NC" style="shape=parallelogram;perimeter=parallelogramPerimeter;whiteSpace=wrap;html=1;fixedSize=1;arcSize=63.2;" vertex="1" parent="1">
          <mxGeometry x="1797" y="1920" width="160" height="100" as="geometry" />
        </mxCell>
        <mxCell id="JVvF_bcykr9_8PElaBvw-87" value="OutPut: Swap PC" style="shape=parallelogram;perimeter=parallelogramPerimeter;whiteSpace=wrap;html=1;fixedSize=1;arcSize=63.2;" vertex="1" parent="1">
          <mxGeometry x="2134.5" y="1820" width="155" height="90" as="geometry" />
        </mxCell>
        <mxCell id="JVvF_bcykr9_8PElaBvw-88" value="" style="endArrow=classic;html=1;rounded=0;exitX=0.5;exitY=1;exitDx=0;exitDy=0;arcSize=63.2;" edge="1" parent="1" source="JVvF_bcykr9_8PElaBvw-83">
          <mxGeometry width="50" height="50" relative="1" as="geometry">
            <mxPoint x="1867" y="1930" as="sourcePoint" />
            <mxPoint x="1877" y="1920" as="targetPoint" />
          </mxGeometry>
        </mxCell>
        <mxCell id="JVvF_bcykr9_8PElaBvw-89" value="Yes" style="text;html=1;align=center;verticalAlign=middle;resizable=0;points=[];autosize=1;strokeColor=none;fillColor=none;arcSize=63.2;" vertex="1" parent="1">
          <mxGeometry x="1877" y="1868" width="40" height="30" as="geometry" />
        </mxCell>
        <mxCell id="JVvF_bcykr9_8PElaBvw-90" value="End" style="rounded=1;whiteSpace=wrap;html=1;arcSize=63.2;" vertex="1" parent="1">
          <mxGeometry x="1817" y="2080" width="120" height="60" as="geometry" />
        </mxCell>
        <mxCell id="JVvF_bcykr9_8PElaBvw-91" value="" style="endArrow=classic;html=1;rounded=0;exitX=0.5;exitY=1;exitDx=0;exitDy=0;arcSize=63.2;" edge="1" parent="1" target="JVvF_bcykr9_8PElaBvw-90">
          <mxGeometry width="50" height="50" relative="1" as="geometry">
            <mxPoint x="1877" y="2020" as="sourcePoint" />
            <mxPoint x="1677" y="2070" as="targetPoint" />
          </mxGeometry>
        </mxCell>
        <mxCell id="JVvF_bcykr9_8PElaBvw-92" value="If Pacific Avenue has a hotel and &lt;br/&gt;        Pennsylvania Avenue has 4 houses:" style="rhombus;whiteSpace=wrap;html=1;arcSize=63.2;" vertex="1" parent="1">
          <mxGeometry x="2087" y="1580" width="250" height="170" as="geometry" />
        </mxCell>
        <mxCell id="JVvF_bcykr9_8PElaBvw-93" value="" style="endArrow=classic;html=1;rounded=0;exitX=1;exitY=1;exitDx=0;exitDy=0;entryX=0;entryY=0;entryDx=0;entryDy=0;arcSize=63.2;" edge="1" parent="1" source="JVvF_bcykr9_8PElaBvw-80" target="JVvF_bcykr9_8PElaBvw-92">
          <mxGeometry width="50" height="50" relative="1" as="geometry">
            <mxPoint x="1997" y="1650" as="sourcePoint" />
            <mxPoint x="2047" y="1600" as="targetPoint" />
          </mxGeometry>
        </mxCell>
        <mxCell id="JVvF_bcykr9_8PElaBvw-94" value="Yes" style="text;html=1;align=center;verticalAlign=middle;resizable=0;points=[];autosize=1;strokeColor=none;fillColor=none;arcSize=63.2;" vertex="1" parent="1">
          <mxGeometry x="2027" y="1568" width="40" height="30" as="geometry" />
        </mxCell>
        <mxCell id="JVvF_bcykr9_8PElaBvw-95" value="" style="endArrow=classic;html=1;rounded=0;exitX=0.5;exitY=1;exitDx=0;exitDy=0;arcSize=63.2;" edge="1" parent="1" source="JVvF_bcykr9_8PElaBvw-92" target="JVvF_bcykr9_8PElaBvw-87">
          <mxGeometry width="50" height="50" relative="1" as="geometry">
            <mxPoint x="2057" y="1920" as="sourcePoint" />
            <mxPoint x="2107" y="1870" as="targetPoint" />
          </mxGeometry>
        </mxCell>
        <mxCell id="JVvF_bcykr9_8PElaBvw-96" value="End" style="rounded=1;whiteSpace=wrap;html=1;arcSize=63.2;" vertex="1" parent="1">
          <mxGeometry x="2152" y="1970" width="120" height="60" as="geometry" />
        </mxCell>
        <mxCell id="JVvF_bcykr9_8PElaBvw-97" value="" style="edgeStyle=none;orthogonalLoop=1;jettySize=auto;html=1;rounded=0;exitX=0.5;exitY=1;exitDx=0;exitDy=0;entryX=0.5;entryY=0;entryDx=0;entryDy=0;arcSize=63.2;" edge="1" parent="1" source="JVvF_bcykr9_8PElaBvw-87" target="JVvF_bcykr9_8PElaBvw-96">
          <mxGeometry width="100" relative="1" as="geometry">
            <mxPoint x="2007" y="1950" as="sourcePoint" />
            <mxPoint x="2107" y="1950" as="targetPoint" />
            <Array as="points" />
          </mxGeometry>
        </mxCell>
        <mxCell id="JVvF_bcykr9_8PElaBvw-99" value="If No swap available/needed" style="rhombus;whiteSpace=wrap;html=1;arcSize=63.2;" vertex="1" parent="1">
          <mxGeometry x="462" y="830" width="210" height="160" as="geometry" />
        </mxCell>
        <mxCell id="JVvF_bcykr9_8PElaBvw-100" value="If both North Carolina and Pacific need houses:" style="rhombus;whiteSpace=wrap;html=1;arcSize=63.2;" vertex="1" parent="1">
          <mxGeometry x="2" y="1050" width="290" height="160" as="geometry" />
        </mxCell>
        <mxCell id="JVvF_bcykr9_8PElaBvw-101" value="If only North Carolina needs houses:" style="rhombus;whiteSpace=wrap;html=1;arcSize=63.2;" vertex="1" parent="1">
          <mxGeometry x="307" y="1060" width="230" height="140" as="geometry" />
        </mxCell>
        <mxCell id="JVvF_bcykr9_8PElaBvw-102" value="&amp;nbsp;If only Pacific needs houses:" style="rhombus;whiteSpace=wrap;html=1;arcSize=63.2;" vertex="1" parent="1">
          <mxGeometry x="567" y="1055" width="210" height="150" as="geometry" />
        </mxCell>
        <mxCell id="JVvF_bcykr9_8PElaBvw-104" value="If no houses are needed on other properties:" style="rhombus;whiteSpace=wrap;html=1;arcSize=63.2;" vertex="1" parent="1">
          <mxGeometry x="794.5" y="1055" width="290" height="160" as="geometry" />
        </mxCell>
        <mxCell id="JVvF_bcykr9_8PElaBvw-105" value="" style="edgeStyle=none;orthogonalLoop=1;jettySize=auto;html=1;rounded=0;exitX=0;exitY=1;exitDx=0;exitDy=0;arcSize=63.2;" edge="1" parent="1" target="JVvF_bcykr9_8PElaBvw-100">
          <mxGeometry width="100" relative="1" as="geometry">
            <mxPoint x="514.5" y="950" as="sourcePoint" />
            <mxPoint x="427" y="940" as="targetPoint" />
            <Array as="points" />
          </mxGeometry>
        </mxCell>
        <mxCell id="JVvF_bcykr9_8PElaBvw-106" value="Yes" style="text;html=1;align=center;verticalAlign=middle;resizable=0;points=[];autosize=1;strokeColor=none;fillColor=none;arcSize=63.2;" vertex="1" parent="1">
          <mxGeometry x="342" y="990" width="40" height="30" as="geometry" />
        </mxCell>
        <mxCell id="JVvF_bcykr9_8PElaBvw-107" value="" style="edgeStyle=none;orthogonalLoop=1;jettySize=auto;html=1;rounded=0;exitX=0.5;exitY=1;exitDx=0;exitDy=0;entryX=1;entryY=0;entryDx=0;entryDy=0;arcSize=63.2;" edge="1" parent="1" target="JVvF_bcykr9_8PElaBvw-101">
          <mxGeometry width="100" relative="1" as="geometry">
            <mxPoint x="567" y="990" as="sourcePoint" />
            <mxPoint x="567" y="1020" as="targetPoint" />
            <Array as="points" />
          </mxGeometry>
        </mxCell>
        <mxCell id="JVvF_bcykr9_8PElaBvw-108" value="Yes" style="text;html=1;align=center;verticalAlign=middle;resizable=0;points=[];autosize=1;strokeColor=none;fillColor=none;arcSize=63.2;" vertex="1" parent="1">
          <mxGeometry x="497" y="1008" width="40" height="30" as="geometry" />
        </mxCell>
        <mxCell id="JVvF_bcykr9_8PElaBvw-109" value="" style="edgeStyle=none;orthogonalLoop=1;jettySize=auto;html=1;rounded=0;entryX=0;entryY=0;entryDx=0;entryDy=0;arcSize=63.2;" edge="1" parent="1" target="JVvF_bcykr9_8PElaBvw-102">
          <mxGeometry width="100" relative="1" as="geometry">
            <mxPoint x="567" y="990" as="sourcePoint" />
            <mxPoint x="657" y="1010" as="targetPoint" />
            <Array as="points" />
          </mxGeometry>
        </mxCell>
        <mxCell id="JVvF_bcykr9_8PElaBvw-110" value="Yes" style="text;html=1;align=center;verticalAlign=middle;resizable=0;points=[];autosize=1;strokeColor=none;fillColor=none;arcSize=63.2;" vertex="1" parent="1">
          <mxGeometry x="590" y="1008" width="40" height="30" as="geometry" />
        </mxCell>
        <mxCell id="JVvF_bcykr9_8PElaBvw-111" value="" style="edgeStyle=none;orthogonalLoop=1;jettySize=auto;html=1;rounded=0;exitX=1;exitY=1;exitDx=0;exitDy=0;arcSize=63.2;" edge="1" parent="1" target="JVvF_bcykr9_8PElaBvw-104">
          <mxGeometry width="100" relative="1" as="geometry">
            <mxPoint x="619.5" y="950" as="sourcePoint" />
            <mxPoint x="707" y="970" as="targetPoint" />
            <Array as="points" />
          </mxGeometry>
        </mxCell>
        <mxCell id="JVvF_bcykr9_8PElaBvw-112" value="Yes" style="text;html=1;align=center;verticalAlign=middle;resizable=0;points=[];autosize=1;strokeColor=none;fillColor=none;arcSize=63.2;" vertex="1" parent="1">
          <mxGeometry x="677" y="960" width="40" height="30" as="geometry" />
        </mxCell>
        <mxCell id="JVvF_bcykr9_8PElaBvw-113" value="Out: Purchase A" style="shape=parallelogram;perimeter=parallelogramPerimeter;whiteSpace=wrap;html=1;fixedSize=1;arcSize=63.2;" vertex="1" parent="1">
          <mxGeometry x="37" y="1270" width="200" height="90" as="geometry" />
        </mxCell>
        <mxCell id="JVvF_bcykr9_8PElaBvw-114" value="Out: Purchase B" style="shape=parallelogram;perimeter=parallelogramPerimeter;whiteSpace=wrap;html=1;fixedSize=1;arcSize=63.2;" vertex="1" parent="1">
          <mxGeometry x="329.5" y="1280" width="185" height="90" as="geometry" />
        </mxCell>
        <mxCell id="JVvF_bcykr9_8PElaBvw-115" value="Out: Purchase C" style="shape=parallelogram;perimeter=parallelogramPerimeter;whiteSpace=wrap;html=1;fixedSize=1;arcSize=63.2;" vertex="1" parent="1">
          <mxGeometry x="584.5" y="1280" width="175" height="95" as="geometry" />
        </mxCell>
        <mxCell id="JVvF_bcykr9_8PElaBvw-116" value="Out: Purchase D" style="shape=parallelogram;perimeter=parallelogramPerimeter;whiteSpace=wrap;html=1;fixedSize=1;arcSize=63.2;" vertex="1" parent="1">
          <mxGeometry x="845.75" y="1270" width="187.5" height="100" as="geometry" />
        </mxCell>
        <mxCell id="JVvF_bcykr9_8PElaBvw-117" value="" style="edgeStyle=none;orthogonalLoop=1;jettySize=auto;html=1;rounded=0;exitX=0.5;exitY=1;exitDx=0;exitDy=0;entryX=0.545;entryY=-0.011;entryDx=0;entryDy=0;entryPerimeter=0;arcSize=63.2;" edge="1" parent="1" source="JVvF_bcykr9_8PElaBvw-100" target="JVvF_bcykr9_8PElaBvw-113">
          <mxGeometry width="100" relative="1" as="geometry">
            <mxPoint x="57" y="1240" as="sourcePoint" />
            <mxPoint x="157" y="1240" as="targetPoint" />
            <Array as="points" />
          </mxGeometry>
        </mxCell>
        <mxCell id="JVvF_bcykr9_8PElaBvw-118" value="Yes" style="text;html=1;align=center;verticalAlign=middle;resizable=0;points=[];autosize=1;strokeColor=none;fillColor=none;arcSize=63.2;" vertex="1" parent="1">
          <mxGeometry x="157" y="1218" width="40" height="30" as="geometry" />
        </mxCell>
        <mxCell id="JVvF_bcykr9_8PElaBvw-119" value="" style="edgeStyle=none;orthogonalLoop=1;jettySize=auto;html=1;rounded=0;exitX=0.5;exitY=1;exitDx=0;exitDy=0;entryX=0.5;entryY=0;entryDx=0;entryDy=0;arcSize=63.2;" edge="1" parent="1" source="JVvF_bcykr9_8PElaBvw-101" target="JVvF_bcykr9_8PElaBvw-114">
          <mxGeometry width="100" relative="1" as="geometry">
            <mxPoint x="397" y="1230" as="sourcePoint" />
            <mxPoint x="497" y="1230" as="targetPoint" />
            <Array as="points" />
          </mxGeometry>
        </mxCell>
        <mxCell id="JVvF_bcykr9_8PElaBvw-120" value="Yes" style="text;html=1;align=center;verticalAlign=middle;resizable=0;points=[];autosize=1;strokeColor=none;fillColor=none;arcSize=63.2;" vertex="1" parent="1">
          <mxGeometry x="427" y="1218" width="40" height="30" as="geometry" />
        </mxCell>
        <mxCell id="JVvF_bcykr9_8PElaBvw-121" value="" style="edgeStyle=none;orthogonalLoop=1;jettySize=auto;html=1;rounded=0;exitX=0.5;exitY=1;exitDx=0;exitDy=0;entryX=0.5;entryY=0;entryDx=0;entryDy=0;arcSize=63.2;" edge="1" parent="1" source="JVvF_bcykr9_8PElaBvw-102" target="JVvF_bcykr9_8PElaBvw-115">
          <mxGeometry width="100" relative="1" as="geometry">
            <mxPoint x="647" y="1220" as="sourcePoint" />
            <mxPoint x="747" y="1220" as="targetPoint" />
            <Array as="points" />
          </mxGeometry>
        </mxCell>
        <mxCell id="JVvF_bcykr9_8PElaBvw-122" value="Yes" style="text;html=1;align=center;verticalAlign=middle;resizable=0;points=[];autosize=1;strokeColor=none;fillColor=none;arcSize=63.2;" vertex="1" parent="1">
          <mxGeometry x="667" y="1218" width="40" height="30" as="geometry" />
        </mxCell>
        <mxCell id="JVvF_bcykr9_8PElaBvw-123" value="" style="endArrow=classic;html=1;rounded=0;exitX=0.5;exitY=1;exitDx=0;exitDy=0;arcSize=63.2;" edge="1" parent="1" source="JVvF_bcykr9_8PElaBvw-104" target="JVvF_bcykr9_8PElaBvw-116">
          <mxGeometry width="50" height="50" relative="1" as="geometry">
            <mxPoint x="737" y="1460" as="sourcePoint" />
            <mxPoint x="787" y="1410" as="targetPoint" />
          </mxGeometry>
        </mxCell>
        <mxCell id="JVvF_bcykr9_8PElaBvw-124" value="Yes" style="text;html=1;align=center;verticalAlign=middle;resizable=0;points=[];autosize=1;strokeColor=none;fillColor=none;arcSize=63.2;" vertex="1" parent="1">
          <mxGeometry x="937" y="1218" width="40" height="30" as="geometry" />
        </mxCell>
        <mxCell id="JVvF_bcykr9_8PElaBvw-125" value="" style="edgeStyle=none;orthogonalLoop=1;jettySize=auto;html=1;rounded=0;entryX=1;entryY=0;entryDx=0;entryDy=0;exitX=0;exitY=0.5;exitDx=0;exitDy=0;arcSize=63.2;" edge="1" parent="1" source="JVvF_bcykr9_8PElaBvw-24" target="JVvF_bcykr9_8PElaBvw-99">
          <mxGeometry width="100" relative="1" as="geometry">
            <mxPoint x="902" y="480" as="sourcePoint" />
            <mxPoint x="942" y="880" as="targetPoint" />
            <Array as="points">
              <mxPoint x="792" y="550" />
              <mxPoint x="782" y="760" />
            </Array>
          </mxGeometry>
        </mxCell>
        <mxCell id="JVvF_bcykr9_8PElaBvw-127" value="Yes" style="text;html=1;align=center;verticalAlign=middle;resizable=0;points=[];autosize=1;strokeColor=none;fillColor=none;arcSize=63.2;" vertex="1" parent="1">
          <mxGeometry x="682" y="780" width="40" height="30" as="geometry" />
        </mxCell>
      </root>
    </mxGraphModel>
  </diagram>
</mxfile>
